PathFileType	4	(x/y/z)	S01_M20_T04.trc
DataRate	CameraRate	NumFrames	NumMarkers	Units	OrigDataRate	OrigDataStartFrame	OrigNumFrames
240	240	4	51	mm	240	91	720
Frame#	Time	Sternum			R.Acromium			L.Acromium			Top.Head			R.ASIS			L.ASIS			R.PSIS			L.PSIS			R.Great.Tro			L.Great.Tro			R.Iliac.Crest			L.Iliac.Crest			V.Sacral			R.Thigh.Upper.Post			R.Thigh.Lower.Ant			R.Thigh.Lower.Post			R.Thigh.Upper.Ant			R.Knee.Lat			R.Knee.Med			R.Shank.Upper.Post			R.Shank.Lower.Ant			R.Shank.Lower.Post			R.Shank.Upper.Ant			R.Ankle.Lat			R.Ankle.Med			R.Heel.Upper			R.Heel.Med			R.Heel.Lat			R.Toe.Lat			R.Toe.Med			R.Toe.Tip			L.Thigh.Upper.Post			L.Thigh.Lower.Ant			L.Thigh.Lower.Post			L.Thigh.Upper.Ant			L.Knee.Lat			L.Knee.Med			L.Shank.Upper.Post			L.Shank.Lower.Ant			L.Shank.Lower.Post			L.Shank.Upper.Ant			L.Ankle.Lat			L.Ankle.Med			L.Heel.Upper			L.Heel.Med			L.Heel.Lat			L.Toe.Lat			L.Toe.Med			L.Toe.Tip			Cervical.Spine			Back			
		X1	Y1	Z1	X2	Y2	Z2	X3	Y3	Z3	X4	Y4	Z4	X5	Y5	Z5	X6	Y6	Z6	X7	Y7	Z7	X8	Y8	Z8	X9	Y9	Z9	X10	Y10	Z10	X11	Y11	Z11	X12	Y12	Z12	X13	Y13	Z13	X14	Y14	Z14	X15	Y15	Z15	X16	Y16	Z16	X17	Y17	Z17	X18	Y18	Z18	X19	Y19	Z19	X20	Y20	Z20	X21	Y21	Z21	X22	Y22	Z22	X23	Y23	Z23	X24	Y24	Z24	X25	Y25	Z25	X26	Y26	Z26	X27	Y27	Z27	X28	Y28	Z28	X29	Y29	Z29	X30	Y30	Z30	X31	Y31	Z31	X32	Y32	Z32	X33	Y33	Z33	X34	Y34	Z34	X35	Y35	Z35	X36	Y36	Z36	X37	Y37	Z37	X38	Y38	Z38	X39	Y39	Z39	X40	Y40	Z40	X41	Y41	Z41	X42	Y42	Z42	X43	Y43	Z43	X44	Y44	Z44	X45	Y45	Z45	X46	Y46	Z46	X47	Y47	Z47	X48	Y48	Z48	X49	Y49	Z49	X50	Y50	Z50	X51	Y51	Z51	

91	0.375	-475.68	1272.5	275.79	-587.99	1526.3	446.31	-619.84	1526.7	117.72	-656.45	1839.1	252.51	-513.25	1012.7	441.09	-509.74	1017.4	173.79	-752.37	1058.3	345.53	-752.99	1054.9	242.79	-596.58	960.41	519.53	-609.07	966.35	96.004	-597.56	1116.4	503.19	-625.56	1092.7	96.056	-765.78	1020	292.48	-627.92	656.77	516.09	-559.4	580.95	506.26	-627.21	567.73	506.1	-556.21	671.58	514.22	-620.19	502.93	507.5	-592.6	491.38	364.06	-769.27	434.19	518.11	-791.03	332.26	481.33	-825.26	391.65	505	-737.02	379.09	500.77	-978.19	258.35	465.44	-943.06	235.01	376.86	-1031	300.5	400.01	-1042.3	275.76	366.72	-1056.5	275	429.39	-983.31	103.6	493.72	-941.92	88.559	376.25	-898.15	45.654	435.75	-559.25	680.66	130.81	-458.26	635.25	138	-526.46	598.25	153.77	-499.56	717.91	113.48	-452.64	530.53	152.93	-443.44	544.16	292.61	-496.35	391.5	131.35	-435.2	303.56	162.3	-493.59	313.77	135.74	-436.1	380.27	153.27	-509.99	103.32	171.43	-487.17	113.22	270.37	-585.87	72.481	216.8	-572.9	47.024	250.15	-576.32	45.856	187.83	-364.65	40.006	152.98	-337.69	44.78	275.4	-275.02	54.715	223.04	-699.94	1579.9	290.4	-773.97	1269.5	321.05
92	0.37917	-471.14	1273.4	275.35	-583.75	1527.4	445.35	-615.15	1527.4	116.76	-652.33	1839.9	251.11	-508.89	1013.8	440.92	-505.11	1018	173.68	-747.86	1059.2	344.77	-748.3	1055.9	241.99	-592.12	961.45	519.21	-604.25	967.08	95.587	-593.71	1117.4	502.74	-620.4	1093.5	95.453	-761.24	1020.9	291.63	-619.95	657.42	516.15	-550.64	582.22	506.93	-618.42	568.36	506.32	-548.36	672.85	514.54	-610.62	503.81	507.81	-582.85	492.27	364.33	-759.76	435.8	518.29	-782.1	334.11	481.25	-815.98	393.63	505.01	-727.81	380.55	500.82	-969.76	262.04	465.04	-934.68	237.78	376.56	-1021.9	304.4	399.11	-1033.4	279.54	365.94	-1047.8	279.37	428.62	-976.55	107.47	494.2	-935.03	90.917	377.07	-892.16	47.33	437.08	-556.08	681.21	130.36	-455.39	635.25	137.78	-523.87	598.63	153.36	-496.25	718.17	113.28	-450.52	530.43	152.7	-441.42	543.96	292.39	-495.02	391.5	131.13	-434.23	303.35	162.13	-492.59	313.76	135.56	-434.82	380.05	153.05	-509.92	103.41	171.4	-487.08	113.29	270.35	-585.81	72.556	216.77	-572.88	47.095	250.13	-576.29	45.92	187.81	-364.61	39.987	152.95	-337.65	44.732	275.39	-274.98	54.584	223.03	-695.51	1580.8	289.24	-769.49	1270.4	320.1
93	0.38333	-466.63	1274.3	274.95	-579.54	1528.6	444.43	-610.46	1528.1	115.83	-648.2	1840.7	249.76	-504.54	1015	440.77	-500.5	1018.6	173.59	-743.36	1060.1	344.04	-743.65	1056.9	241.22	-587.69	962.52	518.91	-599.49	967.82	95.184	-589.89	1118.3	502.33	-615.27	1094.2	94.902	-756.73	1021.9	290.81	-612.01	658.14	516.2	-541.9	583.57	507.6	-609.66	569.08	506.53	-540.54	674.19	514.85	-601.09	504.79	508.11	-573.14	493.25	364.58	-750.28	437.44	518.42	-773.1	335.97	481.16	-806.69	395.6	504.98	-718.59	382.06	500.85	-961.22	265.57	464.6	-926.14	240.42	376.24	-1012.8	308.02	398.15	-1024.4	283	365.11	-1039	283.42	427.79	-969.4	111.25	494.7	-927.74	93.213	377.9	-885.65	49.154	438.43	-552.98	681.78	129.89	-452.6	635.26	137.53	-521.37	599.02	152.93	-493.02	718.44	113.05	-448.49	530.34	152.44	-439.48	543.76	292.13	-493.78	391.5	130.88	-433.33	303.15	161.93	-491.65	313.77	135.35	-433.61	379.84	152.8	-509.85	103.5	171.36	-486.98	113.37	270.31	-585.76	72.637	216.73	-572.85	47.171	250.11	-576.25	45.987	187.78	-364.57	39.961	152.9	-337.62	44.693	275.36	-274.94	54.459	223.02	-691.09	1581.7	288.12	-765.03	1271.3	319.15
94	0.3875	-462.15	1275.3	274.57	-575.36	1529.7	443.54	-605.79	1528.9	114.93	-644.08	1841.6	248.45	-500.2	1016.1	440.65	-495.92	1019.2	173.51	-738.88	1061	343.34	-739.02	1057.9	240.47	-583.26	963.63	518.63	-594.78	968.57	94.794	-586.08	1119.3	501.95	-610.18	1095.1	94.401	-752.24	1022.9	290.03	-604.1	658.94	516.25	-533.21	585	508.28	-600.94	569.88	506.72	-532.77	675.61	515.16	-591.62	505.86	508.4	-563.46	494.33	364.81	-740.83	439.1	518.5	-764.06	337.82	481.06	-797.4	397.55	504.92	-709.35	383.6	500.85	-952.57	268.91	464.11	-917.45	242.93	375.89	-1003.7	311.33	397.14	-1015.3	286.12	364.25	-1030.1	287.14	426.93	-961.87	114.89	495.23	-920.05	95.432	378.75	-878.64	51.094	439.79	-549.96	682.36	129.4	-449.89	635.28	137.24	-518.96	599.42	152.47	-489.85	718.71	112.79	-446.55	530.26	152.13	-437.6	543.56	291.83	-492.6	391.5	130.6	-432.47	302.97	161.7	-490.78	313.78	135.12	-432.47	379.65	152.52	-509.78	103.59	171.3	-486.89	113.46	270.26	-585.7	72.722	216.7	-572.81	47.253	250.09	-576.22	46.057	187.75	-364.54	39.929	152.86	-337.59	44.66	275.33	-274.9	54.341	222.99	-686.69	1582.6	287.02	-760.6	1272.2	318.21
